<?xml version="1.0" standalone="no"?>
<!DOCTYPE svg PUBLIC "-//W3C//DTD SVG 20010904//EN"
 "http://www.w3.org/TR/2001/REC-SVG-20010904/DTD/svg10.dtd">
<svg version="1.0" xmlns="http://www.w3.org/2000/svg"
 width="842.000000pt" height="842.000000pt" viewBox="0 0 842.000000 842.000000"
 preserveAspectRatio="xMidYMid meet">
<metadata>
Created by potrace 1.14, written by Peter Selinger 2001-2017
</metadata>
<g transform="translate(0.000000,842.000000) scale(0.100000,-0.100000)"
fill="#000000" stroke="none">
<path d="M1430 7162 c-14 -2 -64 -9 -112 -17 -511 -85 -772 -510 -638 -1037
79 -310 291 -673 605 -1035 79 -91 421 -433 514 -514 41 -35 79 -69 85 -74 6
-6 47 -40 91 -75 44 -36 85 -69 90 -75 7 -6 11 -86 11 -225 -1 -191 4 -283 20
-385 43 -277 110 -502 218 -725 41 -86 49 -88 26 -5 -14 45 -49 227 -55 283
-3 27 -8 59 -10 73 -36 180 -11 811 31 795 7 -3 46 -29 86 -59 86 -63 193
-138 263 -184 53 -35 59 -39 118 -78 21 -14 40 -25 43 -25 2 0 26 -15 52 -33
45 -31 240 -148 332 -199 25 -14 62 -35 83 -47 220 -124 702 -351 937 -441
319 -122 535 -193 825 -270 44 -12 87 -23 95 -25 8 -2 58 -13 110 -25 52 -12
106 -24 120 -26 14 -3 57 -11 95 -19 39 -8 86 -17 105 -20 19 -3 46 -7 60 -10
37 -6 88 -13 150 -20 30 -3 72 -8 93 -10 131 -16 449 -22 547 -10 25 2 66 7
92 10 128 14 237 38 346 77 46 17 82 32 80 33 -2 2 -43 6 -93 9 -226 16 -521
90 -850 213 -66 24 -133 51 -150 58 -16 7 -73 31 -125 53 -89 37 -126 54 -305
137 -236 109 -658 326 -865 445 -36 20 -85 48 -110 62 -415 231 -1212 753
-1560 1025 -8 6 -64 48 -125 93 -60 45 -122 94 -137 107 l-26 25 30 52 c224
374 510 669 871 894 157 99 466 236 597 267 8 2 49 12 90 24 109 29 221 50
370 68 80 10 441 10 531 1 71 -8 245 -38 304 -52 210 -53 380 -116 562 -211
344 -179 624 -417 873 -744 82 -108 218 -348 279 -496 65 -154 137 -398 155
-520 7 -47 14 -89 21 -130 24 -136 24 -532 1 -665 -3 -14 -7 -43 -11 -65 -7
-52 -31 -164 -50 -240 -8 -33 -17 -68 -19 -77 -3 -9 -19 -58 -37 -110 -128
-375 -335 -710 -607 -985 -129 -131 -186 -181 -317 -278 -258 -192 -504 -318
-836 -430 l-164 -54 70 5 c39 2 86 7 105 9 19 3 55 7 80 10 25 3 52 8 60 10 8
2 35 7 59 10 196 28 561 162 776 285 22 13 49 28 60 34 58 32 210 137 294 204
102 80 334 307 391 382 40 52 61 78 75 94 21 23 104 143 145 211 201 327 327
667 386 1035 2 14 6 39 9 55 2 17 7 55 10 85 4 30 8 71 11 90 6 42 6 403 0
445 -2 17 -8 64 -12 105 -4 41 -8 77 -9 80 -1 3 -5 30 -10 60 -5 30 -9 57 -10
60 -1 3 -7 32 -14 65 -108 513 -364 994 -731 1378 -318 332 -697 578 -1130
734 -82 29 -242 76 -298 88 -103 21 -175 35 -212 40 -25 4 -54 9 -65 11 -99
19 -493 26 -655 11 -404 -36 -850 -183 -1207 -398 -76 -45 -288 -192 -303
-208 -3 -3 -32 -28 -65 -55 -79 -65 -276 -264 -346 -351 -128 -158 -269 -377
-345 -538 -20 -43 -40 -75 -43 -70 -3 5 -22 21 -41 37 -125 103 -399 369 -534
518 -185 205 -327 415 -380 560 -36 99 -40 144 -13 182 32 46 173 104 294 121
21 3 43 8 50 10 71 24 615 24 773 0 14 -2 59 -6 100 -10 41 -4 86 -8 100 -10
14 -2 66 -9 115 -15 50 -6 115 -15 145 -20 30 -5 75 -12 100 -15 25 -3 70 -10
100 -15 30 -5 71 -11 90 -14 19 -3 55 -8 80 -11 l45 -7 -60 39 c-55 36 -135
84 -240 144 -125 71 -419 208 -545 254 -395 144 -631 195 -925 199 -60 0 -121
0 -135 -2z"/>
</g>
</svg>
